<svg width="260" height="29" viewBox="0 0 260 29" fill="none" xmlns="http://www.w3.org/2000/svg">
<g filter="url(#filter0_iiiii_51_1053)">
<path d="M0 8C0 3.58172 3.58172 0 8 0H252C256.418 0 260 3.58172 260 8V29H0V8Z" fill="#0055E5"/>
</g>
<g filter="url(#filter1_d_51_1053)">
<path fill-rule="evenodd" clip-rule="evenodd" d="M31 11H27V12H26V13H25V19H26V20H27V21H31V20H32V19H30V20H28V19H27V13H28V12H30V13H32V12H31V11ZM41 11H43V20H44V21H42V20H41V11ZM44 20V15H45V14H49V15H50V16H48V15H46V20H48V19H50V20H49V21H45V20H44ZM62 11H60V20H61V21H63V20H64V21H67H69V15H68V14H64V15H67V16H64V17H63V20H62V11ZM73 12H71V14H70V15H71V20H72V21H74V20H73V15H74V14H73V12ZM80 14H76V15H75V20H76V21H80V20H81V15H80V14ZM79 20H77V15H79V20ZM85 14H83V21H85V15H86V16H87V15V14H85ZM65 20V17H67V20H65ZM54 14H52V20H53V21H58V20V14H56V20H54V14ZM34 14H38V15H39V21H37H34V20H33V17H34V16H37V15H34V14ZM35 17V20H37V17H35Z" fill="white"/>
</g>
<mask id="mask0_51_1053" style="mask-type:alpha" maskUnits="userSpaceOnUse" x="7" y="7" width="14" height="16">
<rect x="7" y="7" width="14" height="16" fill="#C4C4C4"/>
</mask>
<g mask="url(#mask0_51_1053)">
<g filter="url(#filter2_diiii_51_1053)">
<rect x="7" y="7" width="10" height="15" rx="2" fill="#9EB2FC"/>
<rect x="7" y="7" width="10" height="15" rx="2" fill="url(#paint0_linear_51_1053)"/>
</g>
</g>
<g filter="url(#filter3_i_51_1053)">
<rect x="14" y="19" width="2" height="2" fill="#B44600"/>
<rect x="14" y="13" width="2" height="2" fill="#586BA4"/>
<rect x="8" y="13" width="2" height="2" fill="#586BA4"/>
<rect x="8" y="16" width="2" height="2" fill="#586BA4"/>
<rect x="8" y="19" width="2" height="2" fill="#586BA4"/>
<rect x="11" y="13" width="2" height="2" fill="#586BA4"/>
<rect x="11" y="16" width="2" height="2" fill="#586BA4"/>
<rect x="11" y="19" width="2" height="2" fill="#586BA4"/>
<rect x="14" y="16" width="2" height="2" fill="#586BA4"/>
</g>
<g filter="url(#filter4_di_51_1053)">
<rect x="8" y="9" width="8" height="3" rx="1.5" fill="#5B97FF"/>
</g>
<defs>
<filter id="filter0_iiiii_51_1053" x="-2" y="-6" width="263" height="38" filterUnits="userSpaceOnUse" color-interpolation-filters="sRGB">
<feFlood flood-opacity="0" result="BackgroundImageFix"/>
<feBlend mode="normal" in="SourceGraphic" in2="BackgroundImageFix" result="shape"/>
<feColorMatrix in="SourceAlpha" type="matrix" values="0 0 0 0 0 0 0 0 0 0 0 0 0 0 0 0 0 0 127 0" result="hardAlpha"/>
<feOffset dy="4"/>
<feGaussianBlur stdDeviation="1.5"/>
<feComposite in2="hardAlpha" operator="arithmetic" k2="-1" k3="1"/>
<feColorMatrix type="matrix" values="0 0 0 0 0.22 0 0 0 0 0.591604 0 0 0 0 1 0 0 0 1 0"/>
<feBlend mode="normal" in2="shape" result="effect1_innerShadow_51_1053"/>
<feColorMatrix in="SourceAlpha" type="matrix" values="0 0 0 0 0 0 0 0 0 0 0 0 0 0 0 0 0 0 127 0" result="hardAlpha"/>
<feOffset dy="-12"/>
<feGaussianBlur stdDeviation="3"/>
<feComposite in2="hardAlpha" operator="arithmetic" k2="-1" k3="1"/>
<feColorMatrix type="matrix" values="0 0 0 0 0.00784314 0 0 0 0 0.415686 0 0 0 0 0.996078 0 0 0 1 0"/>
<feBlend mode="normal" in2="effect1_innerShadow_51_1053" result="effect2_innerShadow_51_1053"/>
<feColorMatrix in="SourceAlpha" type="matrix" values="0 0 0 0 0 0 0 0 0 0 0 0 0 0 0 0 0 0 127 0" result="hardAlpha"/>
<feOffset dy="-2"/>
<feGaussianBlur stdDeviation="1.5"/>
<feComposite in2="hardAlpha" operator="arithmetic" k2="-1" k3="1"/>
<feColorMatrix type="matrix" values="0 0 0 0 0.00362319 0 0 0 0 0.242754 0 0 0 0 0.75 0 0 0 1 0"/>
<feBlend mode="normal" in2="effect2_innerShadow_51_1053" result="effect3_innerShadow_51_1053"/>
<feColorMatrix in="SourceAlpha" type="matrix" values="0 0 0 0 0 0 0 0 0 0 0 0 0 0 0 0 0 0 127 0" result="hardAlpha"/>
<feOffset dx="1"/>
<feGaussianBlur stdDeviation="1"/>
<feComposite in2="hardAlpha" operator="arithmetic" k2="-1" k3="1"/>
<feColorMatrix type="matrix" values="0 0 0 0 0 0 0 0 0 0.157667 0 0 0 0 0.77 0 0 0 1 0"/>
<feBlend mode="normal" in2="effect3_innerShadow_51_1053" result="effect4_innerShadow_51_1053"/>
<feColorMatrix in="SourceAlpha" type="matrix" values="0 0 0 0 0 0 0 0 0 0 0 0 0 0 0 0 0 0 127 0" result="hardAlpha"/>
<feOffset dx="-2"/>
<feGaussianBlur stdDeviation="1.5"/>
<feComposite in2="hardAlpha" operator="arithmetic" k2="-1" k3="1"/>
<feColorMatrix type="matrix" values="0 0 0 0 0 0 0 0 0 0.0823529 0 0 0 0 0.564706 0 0 0 1 0"/>
<feBlend mode="normal" in2="effect4_innerShadow_51_1053" result="effect5_innerShadow_51_1053"/>
</filter>
<filter id="filter1_d_51_1053" x="25" y="11" width="63" height="11" filterUnits="userSpaceOnUse" color-interpolation-filters="sRGB">
<feFlood flood-opacity="0" result="BackgroundImageFix"/>
<feColorMatrix in="SourceAlpha" type="matrix" values="0 0 0 0 0 0 0 0 0 0 0 0 0 0 0 0 0 0 127 0" result="hardAlpha"/>
<feOffset dx="1" dy="1"/>
<feColorMatrix type="matrix" values="0 0 0 0 0.0352941 0 0 0 0 0.0901961 0 0 0 0 0.498039 0 0 0 1 0"/>
<feBlend mode="normal" in2="BackgroundImageFix" result="effect1_dropShadow_51_1053"/>
<feBlend mode="normal" in="SourceGraphic" in2="effect1_dropShadow_51_1053" result="shape"/>
</filter>
<filter id="filter2_diiii_51_1053" x="6" y="5" width="14" height="19" filterUnits="userSpaceOnUse" color-interpolation-filters="sRGB">
<feFlood flood-opacity="0" result="BackgroundImageFix"/>
<feColorMatrix in="SourceAlpha" type="matrix" values="0 0 0 0 0 0 0 0 0 0 0 0 0 0 0 0 0 0 127 0" result="hardAlpha"/>
<feOffset dx="1"/>
<feGaussianBlur stdDeviation="1"/>
<feColorMatrix type="matrix" values="0 0 0 0 0.00392157 0 0 0 0 0.180392 0 0 0 0 0.45098 0 0 0 1 0"/>
<feBlend mode="normal" in2="BackgroundImageFix" result="effect1_dropShadow_51_1053"/>
<feBlend mode="normal" in="SourceGraphic" in2="effect1_dropShadow_51_1053" result="shape"/>
<feColorMatrix in="SourceAlpha" type="matrix" values="0 0 0 0 0 0 0 0 0 0 0 0 0 0 0 0 0 0 127 0" result="hardAlpha"/>
<feOffset dy="2"/>
<feComposite in2="hardAlpha" operator="arithmetic" k2="-1" k3="1"/>
<feColorMatrix type="matrix" values="0 0 0 0 1 0 0 0 0 1 0 0 0 0 1 0 0 0 1 0"/>
<feBlend mode="normal" in2="shape" result="effect2_innerShadow_51_1053"/>
<feColorMatrix in="SourceAlpha" type="matrix" values="0 0 0 0 0 0 0 0 0 0 0 0 0 0 0 0 0 0 127 0" result="hardAlpha"/>
<feOffset dy="1"/>
<feGaussianBlur stdDeviation="0.5"/>
<feComposite in2="hardAlpha" operator="arithmetic" k2="-1" k3="1"/>
<feColorMatrix type="matrix" values="0 0 0 0 0.796078 0 0 0 0 0.992157 0 0 0 0 1 0 0 0 1 0"/>
<feBlend mode="normal" in2="effect2_innerShadow_51_1053" result="effect3_innerShadow_51_1053"/>
<feColorMatrix in="SourceAlpha" type="matrix" values="0 0 0 0 0 0 0 0 0 0 0 0 0 0 0 0 0 0 127 0" result="hardAlpha"/>
<feOffset dx="-1"/>
<feComposite in2="hardAlpha" operator="arithmetic" k2="-1" k3="1"/>
<feColorMatrix type="matrix" values="0 0 0 0 0 0 0 0 0 0 0 0 0 0 0 0 0 0 0.2 0"/>
<feBlend mode="normal" in2="effect3_innerShadow_51_1053" result="effect4_innerShadow_51_1053"/>
<feColorMatrix in="SourceAlpha" type="matrix" values="0 0 0 0 0 0 0 0 0 0 0 0 0 0 0 0 0 0 127 0" result="hardAlpha"/>
<feOffset dx="1"/>
<feComposite in2="hardAlpha" operator="arithmetic" k2="-1" k3="1"/>
<feColorMatrix type="matrix" values="0 0 0 0 1 0 0 0 0 1 0 0 0 0 1 0 0 0 0.5 0"/>
<feBlend mode="normal" in2="effect4_innerShadow_51_1053" result="effect5_innerShadow_51_1053"/>
</filter>
<filter id="filter3_i_51_1053" x="8" y="13" width="8" height="8" filterUnits="userSpaceOnUse" color-interpolation-filters="sRGB">
<feFlood flood-opacity="0" result="BackgroundImageFix"/>
<feBlend mode="normal" in="SourceGraphic" in2="BackgroundImageFix" result="shape"/>
<feColorMatrix in="SourceAlpha" type="matrix" values="0 0 0 0 0 0 0 0 0 0 0 0 0 0 0 0 0 0 127 0" result="hardAlpha"/>
<feOffset dy="1"/>
<feComposite in2="hardAlpha" operator="arithmetic" k2="-1" k3="1"/>
<feColorMatrix type="matrix" values="0 0 0 0 1 0 0 0 0 1 0 0 0 0 1 0 0 0 0.1 0"/>
<feBlend mode="normal" in2="shape" result="effect1_innerShadow_51_1053"/>
</filter>
<filter id="filter4_di_51_1053" x="8" y="9" width="8" height="4" filterUnits="userSpaceOnUse" color-interpolation-filters="sRGB">
<feFlood flood-opacity="0" result="BackgroundImageFix"/>
<feColorMatrix in="SourceAlpha" type="matrix" values="0 0 0 0 0 0 0 0 0 0 0 0 0 0 0 0 0 0 127 0" result="hardAlpha"/>
<feOffset dy="1"/>
<feColorMatrix type="matrix" values="0 0 0 0 1 0 0 0 0 1 0 0 0 0 1 0 0 0 0.3 0"/>
<feBlend mode="normal" in2="BackgroundImageFix" result="effect1_dropShadow_51_1053"/>
<feBlend mode="normal" in="SourceGraphic" in2="effect1_dropShadow_51_1053" result="shape"/>
<feColorMatrix in="SourceAlpha" type="matrix" values="0 0 0 0 0 0 0 0 0 0 0 0 0 0 0 0 0 0 127 0" result="hardAlpha"/>
<feOffset dx="1" dy="1"/>
<feComposite in2="hardAlpha" operator="arithmetic" k2="-1" k3="1"/>
<feColorMatrix type="matrix" values="0 0 0 0 0.2236 0 0 0 0 0.43122 0 0 0 0 0.86 0 0 0 1 0"/>
<feBlend mode="normal" in2="shape" result="effect2_innerShadow_51_1053"/>
</filter>
<linearGradient id="paint0_linear_51_1053" x1="12" y1="7" x2="12" y2="22" gradientUnits="userSpaceOnUse">
<stop stop-color="#E3E4FF"/>
<stop offset="1" stop-color="#9EB2FC"/>
</linearGradient>
</defs>
</svg>
